<svg id="Group_8587" data-name="Group 8587" xmlns="http://www.w3.org/2000/svg" width="36" height="24" viewBox="0 0 36 24">
  <rect id="Rectangle_2821" data-name="Rectangle 2821" width="36" height="24" rx="3" transform="translate(0 0)" fill="#3a2a7c"/>
  <path id="Path_1790" data-name="Path 1790" d="M15.455,14.151a3.962,3.962,0,0,0-.971-2.557,3.955,3.955,0,0,0,2.49-1.127,2.954,2.954,0,0,1-1.519,3.683m-2.824,2.77a2.926,2.926,0,0,1-2.133.05,3.966,3.966,0,0,0,1.118-2.5,3.944,3.944,0,0,0,2.555.967,2.942,2.942,0,0,1-1.54,1.48m-1.307-4.84a3.067,3.067,0,0,1-1.194.5,2.954,2.954,0,0,1-.542,3.863,2.95,2.95,0,0,1-.548-3.861,3.036,3.036,0,0,1-1.2-.494,2.946,2.946,0,0,1-3.109,2.35,2.952,2.952,0,0,1,2.339-3.121,3.068,3.068,0,0,1-.5-1.2,2.937,2.937,0,0,1-3.856-.539,2.941,2.941,0,0,1,3.854-.553,3.071,3.071,0,0,1,.494-1.2A2.946,2.946,0,0,1,4.728,4.719a2.941,2.941,0,0,1,3.113,2.34,3.067,3.067,0,0,1,1.194-.5A2.953,2.953,0,0,1,9.577,2.7a2.951,2.951,0,0,1,.548,3.861,3.036,3.036,0,0,1,1.2.494A2.946,2.946,0,0,1,14.429,4.7a2.952,2.952,0,0,1-2.338,3.121,3.075,3.075,0,0,1,.5,1.2,2.937,2.937,0,0,1,3.856.539,2.941,2.941,0,0,1-3.854.553,3.1,3.1,0,0,1-.183.625,3.037,3.037,0,0,1-.311.572,2.946,2.946,0,0,1,2.343,3.113,2.941,2.941,0,0,1-3.113-2.34m-4.777,4.85A2.933,2.933,0,0,1,5,15.457a3.95,3.95,0,0,0,2.553-.976A3.963,3.963,0,0,0,8.68,16.975a2.93,2.93,0,0,1-2.133-.043m-4.3-4.3a2.942,2.942,0,0,1-.049-2.137,3.945,3.945,0,0,0,2.492,1.118,3.97,3.97,0,0,0-.967,2.561A2.932,2.932,0,0,1,2.242,12.63M2.237,6.535A2.939,2.939,0,0,1,3.71,4.989a3.962,3.962,0,0,0,.971,2.557,3.955,3.955,0,0,0-2.49,1.127,2.943,2.943,0,0,1,.045-2.137m4.3-4.317a2.926,2.926,0,0,1,2.133-.05,3.966,3.966,0,0,0-1.118,2.5A3.944,3.944,0,0,0,4.995,3.7a2.94,2.94,0,0,1,1.54-1.48m6.083-.01a2.932,2.932,0,0,1,1.543,1.475,3.961,3.961,0,0,0-2.553.975,3.963,3.963,0,0,0-1.122-2.494,2.928,2.928,0,0,1,2.133.043m4.305,4.3a2.942,2.942,0,0,1,.049,2.137A3.945,3.945,0,0,0,14.48,7.529a3.973,3.973,0,0,0,.967-2.561A2.934,2.934,0,0,1,16.923,6.51m.938,6.48a3.959,3.959,0,0,0-.2-3.433,3.958,3.958,0,0,0-2.372-5.721A3.947,3.947,0,0,0,9.576,1.474,3.952,3.952,0,0,0,3.864,3.855,3.963,3.963,0,0,0,1.5,9.583,3.958,3.958,0,0,0,3.873,15.3a3.947,3.947,0,0,0,5.716,2.361A3.952,3.952,0,0,0,15.3,15.284a3.952,3.952,0,0,0,2.559-2.295" transform="translate(8.418 2.252)" fill="#fff"/>
</svg>
