<svg xmlns="http://www.w3.org/2000/svg" xmlns:xlink="http://www.w3.org/1999/xlink" width="24" height="24" viewBox="0 0 24 24"><defs><style>.a{fill:#fff;}.b{clip-path:url(#a);}.c{fill:#3a2a7c;}</style><clipPath id="a"><rect class="a" width="24" height="24" transform="translate(242 10)"/></clipPath></defs><g class="b" transform="translate(-242 -10)"><path class="c" d="M14.453,13.237a3.687,3.687,0,0,0-.9-2.379,3.681,3.681,0,0,0,2.318-1.049,2.749,2.749,0,0,1-1.414,3.428m-2.628,2.578a2.723,2.723,0,0,1-1.985.047,3.691,3.691,0,0,0,1.04-2.324,3.671,3.671,0,0,0,2.378.9,2.738,2.738,0,0,1-1.433,1.378m-1.216-4.5a2.854,2.854,0,0,1-1.111.463,2.749,2.749,0,0,1-.5,3.6,2.746,2.746,0,0,1-.51-3.593,2.825,2.825,0,0,1-1.112-.459A2.742,2.742,0,0,1,4.477,13.5a2.747,2.747,0,0,1,2.176-2.9,2.855,2.855,0,0,1-.462-1.113,2.734,2.734,0,0,1-3.588-.5A2.737,2.737,0,0,1,6.191,8.47,2.858,2.858,0,0,1,6.65,7.356a2.742,2.742,0,0,1-2.18-2.9,2.737,2.737,0,0,1,2.9,2.177,2.854,2.854,0,0,1,1.111-.463,2.748,2.748,0,0,1,.5-3.6,2.746,2.746,0,0,1,.51,3.593,2.825,2.825,0,0,1,1.112.459A2.742,2.742,0,0,1,13.5,4.444a2.747,2.747,0,0,1-2.176,2.9,2.862,2.862,0,0,1,.461,1.113,2.734,2.734,0,0,1,3.588.5,2.737,2.737,0,0,1-3.587.515,2.881,2.881,0,0,1-.17.581,2.826,2.826,0,0,1-.289.532,2.742,2.742,0,0,1,2.18,2.9,2.737,2.737,0,0,1-2.9-2.177M6.162,15.825a2.729,2.729,0,0,1-1.435-1.373A3.676,3.676,0,0,0,7.1,13.544a3.688,3.688,0,0,0,1.045,2.321,2.727,2.727,0,0,1-1.985-.04m-4.006-4a2.738,2.738,0,0,1-.045-1.988,3.672,3.672,0,0,0,2.319,1.04,3.694,3.694,0,0,0-.9,2.383,2.728,2.728,0,0,1-1.374-1.435m0-5.672A2.735,2.735,0,0,1,3.523,4.71a3.687,3.687,0,0,0,.9,2.379A3.681,3.681,0,0,0,2.109,8.138a2.739,2.739,0,0,1,.042-1.989m4-4.017a2.724,2.724,0,0,1,1.985-.047A3.691,3.691,0,0,0,7.1,4.409a3.671,3.671,0,0,0-2.378-.9A2.736,2.736,0,0,1,6.151,2.132m5.661-.01a2.728,2.728,0,0,1,1.436,1.373,3.687,3.687,0,0,0-2.376.908A3.689,3.689,0,0,0,9.828,2.082a2.725,2.725,0,0,1,1.985.04m4.007,4a2.738,2.738,0,0,1,.045,1.988,3.672,3.672,0,0,0-2.319-1.04,3.7,3.7,0,0,0,.9-2.383,2.73,2.73,0,0,1,1.374,1.435m.873,6.03a3.684,3.684,0,0,0-.184-3.2A3.684,3.684,0,0,0,14.3,3.637a3.673,3.673,0,0,0-5.32-2.2A3.678,3.678,0,0,0,3.665,3.656a3.689,3.689,0,0,0-2.2,5.331A3.684,3.684,0,0,0,3.674,14.31a3.673,3.673,0,0,0,5.32,2.2,3.678,3.678,0,0,0,5.316-2.216,3.678,3.678,0,0,0,2.382-2.135" transform="translate(244.996 12.026)"/></g></svg>